<?xml version="1.0" encoding="utf-8"?><!-- Uploaded to: SVG Repo, www.svgrepo.com, Generator: SVG Repo Mixer Tools -->
<svg fill="#000000" width="800px" height="800px" viewBox="0 0 24 24" id="note-edit" data-name="Flat Line" xmlns="http://www.w3.org/2000/svg" class="icon flat-line"><path id="secondary" d="M18,4H15V5a1,1,0,0,1-1,1H10A1,1,0,0,1,9,5V4H6A1,1,0,0,0,5,5V20a1,1,0,0,0,1,1H18a1,1,0,0,0,1-1V5A1,1,0,0,0,18,4Zm-3.67,8.29-3.18,3.18-2.48.36L9,13.35l3.18-3.18a1.5,1.5,0,0,1,2.12,2.12Z" style="fill: rgb(44, 169, 188); stroke-width: 2;"></path><path id="primary" d="M14,6H10A1,1,0,0,1,9,5V4a1,1,0,0,1,1-1h4a1,1,0,0,1,1,1V5A1,1,0,0,1,14,6Zm.33,6.29a1.51,1.51,0,0,0,0-2.12h0a1.51,1.51,0,0,0-2.12,0L9,13.35l-.36,2.48,2.48-.36Z" style="fill: none; stroke: rgb(0, 0, 0); stroke-linecap: round; stroke-linejoin: round; stroke-width: 2;"></path><path id="primary-2" data-name="primary" d="M18,4a1,1,0,0,1,1,1V20a1,1,0,0,1-1,1H6a1,1,0,0,1-1-1V5A1,1,0,0,1,6,4" style="fill: none; stroke: rgb(0, 0, 0); stroke-linecap: round; stroke-linejoin: round; stroke-width: 2;"></path></svg>